<svg xmlns="http://www.w3.org/2000/svg" viewBox="0 0 64 64" fill="none">
  <defs>
    <linearGradient id="butterflyGrad" x1="0%" y1="0%" x2="100%" y2="100%">
      <stop offset="0%" stopColor="#0D9488"/>
      <stop offset="50%" stopColor="#14B8A6"/>
      <stop offset="100%" stopColor="#065F46"/>
    </linearGradient>
    <linearGradient id="wingGlow" x1="0%" y1="100%" x2="100%" y2="0%">
      <stop offset="0%" stopColor="#5EEAD4" stop-opacity="0.9"/>
      <stop offset="100%" stopColor="#0F766E" stop-opacity="0.9"/>
    </linearGradient>
  </defs>
  
  <!-- Outer Rounded Shield/Tile -->
  <rect width="64" height="64" rx="16" fill="#042F2E"/>
  
  <!-- Subtle inner border -->
  <rect x="2" y="2" width="60" height="60" rx="14" stroke="#14B8A6" stroke-opacity="0.3" stroke-width="2"/>
  
  <!-- Left Butterfly Wing (Contoured Pillow Wave) -->
  <path d="M30 18 C22 13, 10 16, 8 26 C6 35, 12 43, 24 45 C28 45.5, 30 43, 30 40 C30 35, 23 33, 21 28 C19 23, 24 19, 30 18 Z" fill="url(#butterflyGrad)"/>
  
  <!-- Right Butterfly Wing (Contoured Pillow Wave) -->
  <path d="M34 18 C42 13, 54 16, 56 26 C58 35, 52 43, 40 45 C36 45.5, 34 43, 34 40 C34 35, 41 33, 43 28 C45 23, 40 19, 34 18 Z" fill="url(#butterflyGrad)"/>
  
  <!-- Center Ergonomic Cervical Spine Cradle -->
  <path d="M32 20 C30 24, 27 28, 27 34 C27 39, 30 42, 32 44 C34 42, 37 39, 37 34 C37 28, 34 24, 32 20 Z" fill="#99F6E4"/>
  
  <!-- Central Alignment Node -->
  <circle cx="32" cy="32" r="3" fill="#FFFFFF"/>
  <circle cx="32" cy="24" r="2" fill="#5EEAD4"/>
  <circle cx="32" cy="40" r="2" fill="#5EEAD4"/>
</svg>
